<svg xmlns="http://www.w3.org/2000/svg" width="16.776" height="16.776" viewBox="0 0 16.776 16.776">
  <path id="address_book_icon" data-name="address book icon" d="M7.4,20.516a11.7,11.7,0,0,1,3.169-2.109,9.135,9.135,0,0,1,3.821-.8,9.135,9.135,0,0,1,3.821.8,11.7,11.7,0,0,1,3.169,2.109V7.4H7.4Zm7.037-4.753a3.183,3.183,0,0,0,3.215-3.215,3.183,3.183,0,0,0-3.215-3.215,3.183,3.183,0,0,0-3.215,3.215,3.183,3.183,0,0,0,3.215,3.215ZM7.4,22.776a1.433,1.433,0,0,1-1.4-1.4V7.4A1.433,1.433,0,0,1,7.4,6h13.98a1.433,1.433,0,0,1,1.4,1.4v13.98a1.433,1.433,0,0,1-1.4,1.4Zm1.282-1.4H20.1v-.21a9.165,9.165,0,0,0-2.7-1.619,8.524,8.524,0,0,0-6.012,0,9.165,9.165,0,0,0-2.7,1.619Zm5.755-7.013a1.821,1.821,0,0,1-1.282-3.111,1.821,1.821,0,0,1,2.575,2.575A1.738,1.738,0,0,1,14.435,14.365ZM14.388,13.945Z" transform="translate(-6 -6)" fill="#393a60"/>
</svg>
