<svg xmlns="http://www.w3.org/2000/svg" width="20.686" height="21.603" viewBox="0 0 20.686 21.603">
  <path id="dark_mode_icon" data-name="dark mode icon" d="M13.424,5.307q-.436,0-.893.044a4.419,4.419,0,0,0-.7.109A11.626,11.626,0,0,1,13.969,8.88a10.234,10.234,0,0,1,.741,3.834,10.317,10.317,0,0,1-.741,3.845,11.241,11.241,0,0,1-2.113,3.388,5.135,5.135,0,0,0,.675.12,7.569,7.569,0,0,0,.937.054,7.1,7.1,0,0,0,5.2-2.135,7.144,7.144,0,0,0,2.146-5.272,7.108,7.108,0,0,0-2.168-5.272A7.168,7.168,0,0,0,13.424,5.307ZM13.6,4a8.3,8.3,0,0,1,3.312.664,8.594,8.594,0,0,1,2.712,1.83,8.468,8.468,0,0,1,1.83,2.756,8.839,8.839,0,0,1,.664,3.442,8.845,8.845,0,0,1-2.505,6.231,8.412,8.412,0,0,1-6.035,2.505,9.486,9.486,0,0,1-2.309-.283,7.5,7.5,0,0,1-1.9-.719,10.254,10.254,0,0,0,2.974-3.442,9.115,9.115,0,0,0-.011-8.54A9.893,9.893,0,0,0,9.35,5.024a7.748,7.748,0,0,1,1.906-.73A9.367,9.367,0,0,1,13.6,4ZM14.71,12.736Z" transform="matrix(0.799, 0.602, -0.602, 0.799, 5.429, -8.822)" fill="#393a60"/>
</svg>
