<svg xmlns="http://www.w3.org/2000/svg" width="15.129" height="10.896" viewBox="0 0 15.129 10.896">
  <g id="filter_icon" data-name="filter icon" transform="translate(-177.052 -155.448)">
    <path id="Path_9033" data-name="Path 9033" d="M177.788,156.918h13.658a.735.735,0,0,0,0-1.47H177.788a.735.735,0,0,0,0,1.47Z" fill="#393a60"/>
    <path id="Path_9034" data-name="Path 9034" d="M236.588,260.3h8.52a.735.735,0,1,0,0-1.47h-8.52a.735.735,0,1,0,0,1.47Z" transform="translate(-56.228 -98.858)" fill="#393a60"/>
    <path id="Path_9035" data-name="Path 9035" d="M284.638,372.408h4.316a.735.735,0,1,0,0-1.47h-4.316a.735.735,0,0,0,0,1.47Z" transform="translate(-102.176 -206.064)" fill="#393a60"/>
  </g>
</svg>
