<svg xmlns="http://www.w3.org/2000/svg" width="16.672" height="21.276" viewBox="0 0 16.672 21.276">
  <g id="fire_icon" data-name="fire icon" transform="translate(-146.234 -19.976)">
    <path id="Path_8989" data-name="Path 8989" d="M157.675,19.976a5.2,5.2,0,0,0-.175,4.567c1.138,2.309,2.135,4.129,1.907,6.071a5.323,5.323,0,0,1,3.5-3.972,7.887,7.887,0,0,0-.49,4.934,8.475,8.475,0,0,1-6.282,9.676s4.9-2.607,1.382-6.842a3.1,3.1,0,0,1-1.9,2.7,8.018,8.018,0,0,0-1.347-9.37,5.686,5.686,0,0,1-2.257,5.81c-3.219,2.677-1.627,6.981.228,7.576,0,0-10.114-4.514-4.095-13.822a4.068,4.068,0,0,0,1.75,2.94s-.228-9.081,7.778-10.271Z" transform="translate(0)" fill="#fff" fill-rule="evenodd"/>
  </g>
</svg>
