<svg xmlns="http://www.w3.org/2000/svg" width="17" height="17" viewBox="0 0 17 17">
  <path id="Get_quote_icon" data-name="Get quote icon" d="M12.139,12.894,14.5,11.714l2.361,1.181V7.417H12.139ZM9.778,19.222V17.333H14.5v1.889ZM7.417,23A1.453,1.453,0,0,1,6,21.583V7.417A1.453,1.453,0,0,1,7.417,6H21.583A1.453,1.453,0,0,1,23,7.417V21.583A1.453,1.453,0,0,1,21.583,23Zm0-15.583v0Zm0,14.167H21.583V7.417H18.278v7.768L14.5,13.3l-3.778,1.889V7.417H7.417Z" transform="translate(-6 -6)" fill="#393a60"/>
</svg>
