<svg xmlns="http://www.w3.org/2000/svg" width="17" height="17" viewBox="0 0 17 17">
  <path id="help_icon" data-name="help icon" d="M12.585,17.451a.8.8,0,1,0-.574-.234A.78.78,0,0,0,12.585,17.451Zm-.744-3.1H13.1a3.478,3.478,0,0,1,.138-1.009,2.5,2.5,0,0,1,.861-1.052,3.718,3.718,0,0,0,.935-1.084,2.5,2.5,0,0,0,.276-1.169,2.346,2.346,0,0,0-.733-1.806,2.745,2.745,0,0,0-1.944-.68,3.285,3.285,0,0,0-1.838.521A2.973,2.973,0,0,0,9.631,9.5l1.126.425a1.983,1.983,0,0,1,.7-.924,1.869,1.869,0,0,1,1.1-.329,1.7,1.7,0,0,1,1.169.393,1.284,1.284,0,0,1,.446,1.009,1.562,1.562,0,0,1-.276.882,4.233,4.233,0,0,1-.808.861,4.322,4.322,0,0,0-.946,1.094,2.893,2.893,0,0,0-.308,1.434ZM12.5,21a8.225,8.225,0,0,1-3.294-.669,8.564,8.564,0,0,1-4.537-4.537,8.491,8.491,0,0,1,0-6.609A8.495,8.495,0,0,1,6.5,6.486,8.713,8.713,0,0,1,9.206,4.669a8.491,8.491,0,0,1,6.609,0,8.487,8.487,0,0,1,4.516,4.516,8.491,8.491,0,0,1,0,6.609A8.713,8.713,0,0,1,18.514,18.5a8.495,8.495,0,0,1-2.7,1.827A8.277,8.277,0,0,1,12.5,21Zm0-1.275a6.952,6.952,0,0,0,5.121-2.114,6.98,6.98,0,0,0,2.1-5.111,6.97,6.97,0,0,0-2.1-5.121,6.97,6.97,0,0,0-5.121-2.1,6.98,6.98,0,0,0-5.111,2.1A6.952,6.952,0,0,0,5.275,12.5a6.963,6.963,0,0,0,2.114,5.111A6.963,6.963,0,0,0,12.5,19.725ZM12.5,12.5Z" transform="translate(-4 -4)" fill="#393a60"/>
</svg>
