<svg xmlns="http://www.w3.org/2000/svg" width="17" height="17" viewBox="0 0 17 17">
  <path id="history_icon" data-name="history icon" d="M14.429,23a8.073,8.073,0,0,1-5.974-2.491A8.277,8.277,0,0,1,6,14.476H7.417a6.931,6.931,0,0,0,2.031,5.029,6.7,6.7,0,0,0,4.982,2.078,6.866,6.866,0,0,0,5.076-2.1,6.984,6.984,0,0,0,2.078-5.1,6.594,6.594,0,0,0-2.1-4.947,7.033,7.033,0,0,0-5.053-2.019,6.421,6.421,0,0,0-3.01.732,8.21,8.21,0,0,0-2.444,1.936h2.479V11.5H6.519V6.59H7.936v2.5a8.985,8.985,0,0,1,2.916-2.267A8.031,8.031,0,0,1,14.429,6a8.435,8.435,0,0,1,3.329.661,8.724,8.724,0,0,1,2.727,1.806,8.479,8.479,0,0,1,1.842,2.68A8.14,8.14,0,0,1,23,14.453a8.307,8.307,0,0,1-.673,3.329A8.546,8.546,0,0,1,20.485,20.5a8.789,8.789,0,0,1-2.727,1.83A8.307,8.307,0,0,1,14.429,23Zm3.022-4.651L13.815,14.76V9.707h1.417v4.463l3.235,3.164Z" transform="translate(-6 -6)" fill="#393a60"/>
</svg>
