<svg xmlns="http://www.w3.org/2000/svg" width="17.497" height="17.497" viewBox="0 0 17.497 17.497">
  <path id="setting" d="M10.736,21.5,10.3,18.741a5.86,5.86,0,0,1-.875-.416,6.011,6.011,0,0,1-.809-.547L6.034,18.96,4,15.373l2.362-1.728a2.6,2.6,0,0,1-.055-.448q-.011-.252-.011-.448t.011-.448a2.6,2.6,0,0,1,.055-.448L4,10.124,6.034,6.537,8.615,7.718a6.011,6.011,0,0,1,.809-.547,4.526,4.526,0,0,1,.875-.394L10.736,4H14.76L15.2,6.756a7.091,7.091,0,0,1,.886.4,3.765,3.765,0,0,1,.8.558l2.581-1.181L21.5,10.124l-2.362,1.684a3.082,3.082,0,0,1,.055.47q.011.252.011.47t-.011.459a3.046,3.046,0,0,1-.055.459L21.5,15.373,19.463,18.96l-2.581-1.181a7.255,7.255,0,0,1-.8.558,3.811,3.811,0,0,1-.886.4L14.76,21.5Zm2.012-5.905a2.838,2.838,0,0,0,2.843-2.843,2.838,2.838,0,0,0-2.843-2.843,2.838,2.838,0,0,0-2.843,2.843,2.838,2.838,0,0,0,2.843,2.843Zm0-1.312a1.531,1.531,0,1,1,1.083-.448A1.475,1.475,0,0,1,12.748,14.279ZM12.748,12.748Zm-.962,7.436h1.925l.306-2.45a5.158,5.158,0,0,0,1.367-.547,5.606,5.606,0,0,0,1.17-.9L18.872,17.3l.875-1.575-2.056-1.509q.087-.372.142-.733a4.884,4.884,0,0,0,.055-.733,6.083,6.083,0,0,0-.044-.733,4.526,4.526,0,0,0-.153-.733l2.056-1.509L18.872,8.2,16.554,9.205a4.875,4.875,0,0,0-1.137-.951,3.689,3.689,0,0,0-1.4-.492l-.306-2.45H11.786l-.306,2.45a4.634,4.634,0,0,0-1.389.525,4.824,4.824,0,0,0-1.148.919L6.624,8.2,5.75,9.774l2.056,1.509q-.087.372-.142.733a4.936,4.936,0,0,0,0,1.465q.055.361.142.733L5.75,15.723,6.624,17.3l2.318-1.006a5.605,5.605,0,0,0,1.17.9,5.158,5.158,0,0,0,1.367.547Z" transform="translate(-4 -4)" fill="#393a60"/>
</svg>
