<svg xmlns="http://www.w3.org/2000/svg" width="17.986" height="18.572" viewBox="0 0 17.986 18.572">
  <g id="shipment_icon" data-name="shipment icon" transform="translate(-92.712 -13.608)">
    <path id="Path_8997" data-name="Path 8997" d="M101.495,13.9l-8.248,3.829a.481.481,0,0,0-.286.438v9.448a.481.481,0,0,0,.286.438l8.248,3.829a.534.534,0,0,0,.419,0l8.248-3.829a.481.481,0,0,0,.286-.438V18.19a.481.481,0,0,0-.286-.438L101.914,13.9a.534.534,0,0,0-.419,0Zm7.3,4.286L101.7,21.466l-2.781-1.3-1.143-.533-3.143-1.467,7.066-3.276Zm-14.838.762,3.333,1.543.991.457,2.952,1.371v8.362l-7.276-3.352ZM102.2,30.7V22.323l7.257-3.371v8.362Z" transform="translate(0)" fill="#f97031" stroke="#f97031" stroke-width="0.5"/>
  </g>
</svg>
